G75*
%MOIN*%
%OFA0B0*%
%FSLAX25Y25*%
%IPPOS*%
%LPD*%
%AMOC8*
5,1,8,0,0,1.08239X$1,22.5*
%
%ADD10C,0.00000*%
%ADD11C,0.00600*%
%ADD12C,0.00400*%
%ADD13C,0.00500*%
D10*
X0011800Y0045955D02*
X0011800Y0355916D01*
X0395501Y0355916D01*
X0395501Y0045955D01*
X0011800Y0045955D01*
X0024438Y0060955D02*
X0024440Y0061052D01*
X0024446Y0061149D01*
X0024456Y0061245D01*
X0024470Y0061341D01*
X0024488Y0061437D01*
X0024509Y0061531D01*
X0024535Y0061625D01*
X0024564Y0061717D01*
X0024598Y0061808D01*
X0024634Y0061898D01*
X0024675Y0061986D01*
X0024719Y0062072D01*
X0024767Y0062157D01*
X0024818Y0062239D01*
X0024872Y0062320D01*
X0024930Y0062398D01*
X0024991Y0062473D01*
X0025054Y0062546D01*
X0025121Y0062617D01*
X0025191Y0062684D01*
X0025263Y0062749D01*
X0025338Y0062810D01*
X0025416Y0062869D01*
X0025495Y0062924D01*
X0025577Y0062976D01*
X0025661Y0063024D01*
X0025747Y0063069D01*
X0025835Y0063111D01*
X0025924Y0063149D01*
X0026015Y0063183D01*
X0026107Y0063213D01*
X0026200Y0063240D01*
X0026295Y0063262D01*
X0026390Y0063281D01*
X0026486Y0063296D01*
X0026582Y0063307D01*
X0026679Y0063314D01*
X0026776Y0063317D01*
X0026873Y0063316D01*
X0026970Y0063311D01*
X0027066Y0063302D01*
X0027162Y0063289D01*
X0027258Y0063272D01*
X0027353Y0063251D01*
X0027446Y0063227D01*
X0027539Y0063198D01*
X0027631Y0063166D01*
X0027721Y0063130D01*
X0027809Y0063091D01*
X0027896Y0063047D01*
X0027981Y0063001D01*
X0028064Y0062950D01*
X0028145Y0062897D01*
X0028223Y0062840D01*
X0028300Y0062780D01*
X0028373Y0062717D01*
X0028444Y0062651D01*
X0028512Y0062582D01*
X0028578Y0062510D01*
X0028640Y0062436D01*
X0028699Y0062359D01*
X0028755Y0062280D01*
X0028808Y0062198D01*
X0028858Y0062115D01*
X0028903Y0062029D01*
X0028946Y0061942D01*
X0028985Y0061853D01*
X0029020Y0061763D01*
X0029051Y0061671D01*
X0029078Y0061578D01*
X0029102Y0061484D01*
X0029122Y0061389D01*
X0029138Y0061293D01*
X0029150Y0061197D01*
X0029158Y0061100D01*
X0029162Y0061003D01*
X0029162Y0060907D01*
X0029158Y0060810D01*
X0029150Y0060713D01*
X0029138Y0060617D01*
X0029122Y0060521D01*
X0029102Y0060426D01*
X0029078Y0060332D01*
X0029051Y0060239D01*
X0029020Y0060147D01*
X0028985Y0060057D01*
X0028946Y0059968D01*
X0028903Y0059881D01*
X0028858Y0059795D01*
X0028808Y0059712D01*
X0028755Y0059630D01*
X0028699Y0059551D01*
X0028640Y0059474D01*
X0028578Y0059400D01*
X0028512Y0059328D01*
X0028444Y0059259D01*
X0028373Y0059193D01*
X0028300Y0059130D01*
X0028223Y0059070D01*
X0028145Y0059013D01*
X0028064Y0058960D01*
X0027981Y0058909D01*
X0027896Y0058863D01*
X0027809Y0058819D01*
X0027721Y0058780D01*
X0027631Y0058744D01*
X0027539Y0058712D01*
X0027446Y0058683D01*
X0027353Y0058659D01*
X0027258Y0058638D01*
X0027162Y0058621D01*
X0027066Y0058608D01*
X0026970Y0058599D01*
X0026873Y0058594D01*
X0026776Y0058593D01*
X0026679Y0058596D01*
X0026582Y0058603D01*
X0026486Y0058614D01*
X0026390Y0058629D01*
X0026295Y0058648D01*
X0026200Y0058670D01*
X0026107Y0058697D01*
X0026015Y0058727D01*
X0025924Y0058761D01*
X0025835Y0058799D01*
X0025747Y0058841D01*
X0025661Y0058886D01*
X0025577Y0058934D01*
X0025495Y0058986D01*
X0025416Y0059041D01*
X0025338Y0059100D01*
X0025263Y0059161D01*
X0025191Y0059226D01*
X0025121Y0059293D01*
X0025054Y0059364D01*
X0024991Y0059437D01*
X0024930Y0059512D01*
X0024872Y0059590D01*
X0024818Y0059671D01*
X0024767Y0059753D01*
X0024719Y0059838D01*
X0024675Y0059924D01*
X0024634Y0060012D01*
X0024598Y0060102D01*
X0024564Y0060193D01*
X0024535Y0060285D01*
X0024509Y0060379D01*
X0024488Y0060473D01*
X0024470Y0060569D01*
X0024456Y0060665D01*
X0024446Y0060761D01*
X0024440Y0060858D01*
X0024438Y0060955D01*
X0095300Y0334955D02*
X0095302Y0335116D01*
X0095308Y0335276D01*
X0095318Y0335437D01*
X0095332Y0335597D01*
X0095350Y0335757D01*
X0095371Y0335916D01*
X0095397Y0336075D01*
X0095427Y0336233D01*
X0095460Y0336390D01*
X0095498Y0336547D01*
X0095539Y0336702D01*
X0095584Y0336856D01*
X0095633Y0337009D01*
X0095686Y0337161D01*
X0095742Y0337312D01*
X0095803Y0337461D01*
X0095866Y0337609D01*
X0095934Y0337755D01*
X0096005Y0337899D01*
X0096079Y0338041D01*
X0096157Y0338182D01*
X0096239Y0338320D01*
X0096324Y0338457D01*
X0096412Y0338591D01*
X0096504Y0338723D01*
X0096599Y0338853D01*
X0096697Y0338981D01*
X0096798Y0339106D01*
X0096902Y0339228D01*
X0097009Y0339348D01*
X0097119Y0339465D01*
X0097232Y0339580D01*
X0097348Y0339691D01*
X0097467Y0339800D01*
X0097588Y0339905D01*
X0097712Y0340008D01*
X0097838Y0340108D01*
X0097966Y0340204D01*
X0098097Y0340297D01*
X0098231Y0340387D01*
X0098366Y0340474D01*
X0098504Y0340557D01*
X0098643Y0340637D01*
X0098785Y0340713D01*
X0098928Y0340786D01*
X0099073Y0340855D01*
X0099220Y0340921D01*
X0099368Y0340983D01*
X0099518Y0341041D01*
X0099669Y0341096D01*
X0099822Y0341147D01*
X0099976Y0341194D01*
X0100131Y0341237D01*
X0100287Y0341276D01*
X0100443Y0341312D01*
X0100601Y0341343D01*
X0100759Y0341371D01*
X0100918Y0341395D01*
X0101078Y0341415D01*
X0101238Y0341431D01*
X0101398Y0341443D01*
X0101559Y0341451D01*
X0101720Y0341455D01*
X0101880Y0341455D01*
X0102041Y0341451D01*
X0102202Y0341443D01*
X0102362Y0341431D01*
X0102522Y0341415D01*
X0102682Y0341395D01*
X0102841Y0341371D01*
X0102999Y0341343D01*
X0103157Y0341312D01*
X0103313Y0341276D01*
X0103469Y0341237D01*
X0103624Y0341194D01*
X0103778Y0341147D01*
X0103931Y0341096D01*
X0104082Y0341041D01*
X0104232Y0340983D01*
X0104380Y0340921D01*
X0104527Y0340855D01*
X0104672Y0340786D01*
X0104815Y0340713D01*
X0104957Y0340637D01*
X0105096Y0340557D01*
X0105234Y0340474D01*
X0105369Y0340387D01*
X0105503Y0340297D01*
X0105634Y0340204D01*
X0105762Y0340108D01*
X0105888Y0340008D01*
X0106012Y0339905D01*
X0106133Y0339800D01*
X0106252Y0339691D01*
X0106368Y0339580D01*
X0106481Y0339465D01*
X0106591Y0339348D01*
X0106698Y0339228D01*
X0106802Y0339106D01*
X0106903Y0338981D01*
X0107001Y0338853D01*
X0107096Y0338723D01*
X0107188Y0338591D01*
X0107276Y0338457D01*
X0107361Y0338320D01*
X0107443Y0338182D01*
X0107521Y0338041D01*
X0107595Y0337899D01*
X0107666Y0337755D01*
X0107734Y0337609D01*
X0107797Y0337461D01*
X0107858Y0337312D01*
X0107914Y0337161D01*
X0107967Y0337009D01*
X0108016Y0336856D01*
X0108061Y0336702D01*
X0108102Y0336547D01*
X0108140Y0336390D01*
X0108173Y0336233D01*
X0108203Y0336075D01*
X0108229Y0335916D01*
X0108250Y0335757D01*
X0108268Y0335597D01*
X0108282Y0335437D01*
X0108292Y0335276D01*
X0108298Y0335116D01*
X0108300Y0334955D01*
X0108298Y0334794D01*
X0108292Y0334634D01*
X0108282Y0334473D01*
X0108268Y0334313D01*
X0108250Y0334153D01*
X0108229Y0333994D01*
X0108203Y0333835D01*
X0108173Y0333677D01*
X0108140Y0333520D01*
X0108102Y0333363D01*
X0108061Y0333208D01*
X0108016Y0333054D01*
X0107967Y0332901D01*
X0107914Y0332749D01*
X0107858Y0332598D01*
X0107797Y0332449D01*
X0107734Y0332301D01*
X0107666Y0332155D01*
X0107595Y0332011D01*
X0107521Y0331869D01*
X0107443Y0331728D01*
X0107361Y0331590D01*
X0107276Y0331453D01*
X0107188Y0331319D01*
X0107096Y0331187D01*
X0107001Y0331057D01*
X0106903Y0330929D01*
X0106802Y0330804D01*
X0106698Y0330682D01*
X0106591Y0330562D01*
X0106481Y0330445D01*
X0106368Y0330330D01*
X0106252Y0330219D01*
X0106133Y0330110D01*
X0106012Y0330005D01*
X0105888Y0329902D01*
X0105762Y0329802D01*
X0105634Y0329706D01*
X0105503Y0329613D01*
X0105369Y0329523D01*
X0105234Y0329436D01*
X0105096Y0329353D01*
X0104957Y0329273D01*
X0104815Y0329197D01*
X0104672Y0329124D01*
X0104527Y0329055D01*
X0104380Y0328989D01*
X0104232Y0328927D01*
X0104082Y0328869D01*
X0103931Y0328814D01*
X0103778Y0328763D01*
X0103624Y0328716D01*
X0103469Y0328673D01*
X0103313Y0328634D01*
X0103157Y0328598D01*
X0102999Y0328567D01*
X0102841Y0328539D01*
X0102682Y0328515D01*
X0102522Y0328495D01*
X0102362Y0328479D01*
X0102202Y0328467D01*
X0102041Y0328459D01*
X0101880Y0328455D01*
X0101720Y0328455D01*
X0101559Y0328459D01*
X0101398Y0328467D01*
X0101238Y0328479D01*
X0101078Y0328495D01*
X0100918Y0328515D01*
X0100759Y0328539D01*
X0100601Y0328567D01*
X0100443Y0328598D01*
X0100287Y0328634D01*
X0100131Y0328673D01*
X0099976Y0328716D01*
X0099822Y0328763D01*
X0099669Y0328814D01*
X0099518Y0328869D01*
X0099368Y0328927D01*
X0099220Y0328989D01*
X0099073Y0329055D01*
X0098928Y0329124D01*
X0098785Y0329197D01*
X0098643Y0329273D01*
X0098504Y0329353D01*
X0098366Y0329436D01*
X0098231Y0329523D01*
X0098097Y0329613D01*
X0097966Y0329706D01*
X0097838Y0329802D01*
X0097712Y0329902D01*
X0097588Y0330005D01*
X0097467Y0330110D01*
X0097348Y0330219D01*
X0097232Y0330330D01*
X0097119Y0330445D01*
X0097009Y0330562D01*
X0096902Y0330682D01*
X0096798Y0330804D01*
X0096697Y0330929D01*
X0096599Y0331057D01*
X0096504Y0331187D01*
X0096412Y0331319D01*
X0096324Y0331453D01*
X0096239Y0331590D01*
X0096157Y0331728D01*
X0096079Y0331869D01*
X0096005Y0332011D01*
X0095934Y0332155D01*
X0095866Y0332301D01*
X0095803Y0332449D01*
X0095742Y0332598D01*
X0095686Y0332749D01*
X0095633Y0332901D01*
X0095584Y0333054D01*
X0095539Y0333208D01*
X0095498Y0333363D01*
X0095460Y0333520D01*
X0095427Y0333677D01*
X0095397Y0333835D01*
X0095371Y0333994D01*
X0095350Y0334153D01*
X0095332Y0334313D01*
X0095318Y0334473D01*
X0095308Y0334634D01*
X0095302Y0334794D01*
X0095300Y0334955D01*
X0024438Y0340955D02*
X0024440Y0341052D01*
X0024446Y0341149D01*
X0024456Y0341245D01*
X0024470Y0341341D01*
X0024488Y0341437D01*
X0024509Y0341531D01*
X0024535Y0341625D01*
X0024564Y0341717D01*
X0024598Y0341808D01*
X0024634Y0341898D01*
X0024675Y0341986D01*
X0024719Y0342072D01*
X0024767Y0342157D01*
X0024818Y0342239D01*
X0024872Y0342320D01*
X0024930Y0342398D01*
X0024991Y0342473D01*
X0025054Y0342546D01*
X0025121Y0342617D01*
X0025191Y0342684D01*
X0025263Y0342749D01*
X0025338Y0342810D01*
X0025416Y0342869D01*
X0025495Y0342924D01*
X0025577Y0342976D01*
X0025661Y0343024D01*
X0025747Y0343069D01*
X0025835Y0343111D01*
X0025924Y0343149D01*
X0026015Y0343183D01*
X0026107Y0343213D01*
X0026200Y0343240D01*
X0026295Y0343262D01*
X0026390Y0343281D01*
X0026486Y0343296D01*
X0026582Y0343307D01*
X0026679Y0343314D01*
X0026776Y0343317D01*
X0026873Y0343316D01*
X0026970Y0343311D01*
X0027066Y0343302D01*
X0027162Y0343289D01*
X0027258Y0343272D01*
X0027353Y0343251D01*
X0027446Y0343227D01*
X0027539Y0343198D01*
X0027631Y0343166D01*
X0027721Y0343130D01*
X0027809Y0343091D01*
X0027896Y0343047D01*
X0027981Y0343001D01*
X0028064Y0342950D01*
X0028145Y0342897D01*
X0028223Y0342840D01*
X0028300Y0342780D01*
X0028373Y0342717D01*
X0028444Y0342651D01*
X0028512Y0342582D01*
X0028578Y0342510D01*
X0028640Y0342436D01*
X0028699Y0342359D01*
X0028755Y0342280D01*
X0028808Y0342198D01*
X0028858Y0342115D01*
X0028903Y0342029D01*
X0028946Y0341942D01*
X0028985Y0341853D01*
X0029020Y0341763D01*
X0029051Y0341671D01*
X0029078Y0341578D01*
X0029102Y0341484D01*
X0029122Y0341389D01*
X0029138Y0341293D01*
X0029150Y0341197D01*
X0029158Y0341100D01*
X0029162Y0341003D01*
X0029162Y0340907D01*
X0029158Y0340810D01*
X0029150Y0340713D01*
X0029138Y0340617D01*
X0029122Y0340521D01*
X0029102Y0340426D01*
X0029078Y0340332D01*
X0029051Y0340239D01*
X0029020Y0340147D01*
X0028985Y0340057D01*
X0028946Y0339968D01*
X0028903Y0339881D01*
X0028858Y0339795D01*
X0028808Y0339712D01*
X0028755Y0339630D01*
X0028699Y0339551D01*
X0028640Y0339474D01*
X0028578Y0339400D01*
X0028512Y0339328D01*
X0028444Y0339259D01*
X0028373Y0339193D01*
X0028300Y0339130D01*
X0028223Y0339070D01*
X0028145Y0339013D01*
X0028064Y0338960D01*
X0027981Y0338909D01*
X0027896Y0338863D01*
X0027809Y0338819D01*
X0027721Y0338780D01*
X0027631Y0338744D01*
X0027539Y0338712D01*
X0027446Y0338683D01*
X0027353Y0338659D01*
X0027258Y0338638D01*
X0027162Y0338621D01*
X0027066Y0338608D01*
X0026970Y0338599D01*
X0026873Y0338594D01*
X0026776Y0338593D01*
X0026679Y0338596D01*
X0026582Y0338603D01*
X0026486Y0338614D01*
X0026390Y0338629D01*
X0026295Y0338648D01*
X0026200Y0338670D01*
X0026107Y0338697D01*
X0026015Y0338727D01*
X0025924Y0338761D01*
X0025835Y0338799D01*
X0025747Y0338841D01*
X0025661Y0338886D01*
X0025577Y0338934D01*
X0025495Y0338986D01*
X0025416Y0339041D01*
X0025338Y0339100D01*
X0025263Y0339161D01*
X0025191Y0339226D01*
X0025121Y0339293D01*
X0025054Y0339364D01*
X0024991Y0339437D01*
X0024930Y0339512D01*
X0024872Y0339590D01*
X0024818Y0339671D01*
X0024767Y0339753D01*
X0024719Y0339838D01*
X0024675Y0339924D01*
X0024634Y0340012D01*
X0024598Y0340102D01*
X0024564Y0340193D01*
X0024535Y0340285D01*
X0024509Y0340379D01*
X0024488Y0340473D01*
X0024470Y0340569D01*
X0024456Y0340665D01*
X0024446Y0340761D01*
X0024440Y0340858D01*
X0024438Y0340955D01*
X0379438Y0340955D02*
X0379440Y0341052D01*
X0379446Y0341149D01*
X0379456Y0341245D01*
X0379470Y0341341D01*
X0379488Y0341437D01*
X0379509Y0341531D01*
X0379535Y0341625D01*
X0379564Y0341717D01*
X0379598Y0341808D01*
X0379634Y0341898D01*
X0379675Y0341986D01*
X0379719Y0342072D01*
X0379767Y0342157D01*
X0379818Y0342239D01*
X0379872Y0342320D01*
X0379930Y0342398D01*
X0379991Y0342473D01*
X0380054Y0342546D01*
X0380121Y0342617D01*
X0380191Y0342684D01*
X0380263Y0342749D01*
X0380338Y0342810D01*
X0380416Y0342869D01*
X0380495Y0342924D01*
X0380577Y0342976D01*
X0380661Y0343024D01*
X0380747Y0343069D01*
X0380835Y0343111D01*
X0380924Y0343149D01*
X0381015Y0343183D01*
X0381107Y0343213D01*
X0381200Y0343240D01*
X0381295Y0343262D01*
X0381390Y0343281D01*
X0381486Y0343296D01*
X0381582Y0343307D01*
X0381679Y0343314D01*
X0381776Y0343317D01*
X0381873Y0343316D01*
X0381970Y0343311D01*
X0382066Y0343302D01*
X0382162Y0343289D01*
X0382258Y0343272D01*
X0382353Y0343251D01*
X0382446Y0343227D01*
X0382539Y0343198D01*
X0382631Y0343166D01*
X0382721Y0343130D01*
X0382809Y0343091D01*
X0382896Y0343047D01*
X0382981Y0343001D01*
X0383064Y0342950D01*
X0383145Y0342897D01*
X0383223Y0342840D01*
X0383300Y0342780D01*
X0383373Y0342717D01*
X0383444Y0342651D01*
X0383512Y0342582D01*
X0383578Y0342510D01*
X0383640Y0342436D01*
X0383699Y0342359D01*
X0383755Y0342280D01*
X0383808Y0342198D01*
X0383858Y0342115D01*
X0383903Y0342029D01*
X0383946Y0341942D01*
X0383985Y0341853D01*
X0384020Y0341763D01*
X0384051Y0341671D01*
X0384078Y0341578D01*
X0384102Y0341484D01*
X0384122Y0341389D01*
X0384138Y0341293D01*
X0384150Y0341197D01*
X0384158Y0341100D01*
X0384162Y0341003D01*
X0384162Y0340907D01*
X0384158Y0340810D01*
X0384150Y0340713D01*
X0384138Y0340617D01*
X0384122Y0340521D01*
X0384102Y0340426D01*
X0384078Y0340332D01*
X0384051Y0340239D01*
X0384020Y0340147D01*
X0383985Y0340057D01*
X0383946Y0339968D01*
X0383903Y0339881D01*
X0383858Y0339795D01*
X0383808Y0339712D01*
X0383755Y0339630D01*
X0383699Y0339551D01*
X0383640Y0339474D01*
X0383578Y0339400D01*
X0383512Y0339328D01*
X0383444Y0339259D01*
X0383373Y0339193D01*
X0383300Y0339130D01*
X0383223Y0339070D01*
X0383145Y0339013D01*
X0383064Y0338960D01*
X0382981Y0338909D01*
X0382896Y0338863D01*
X0382809Y0338819D01*
X0382721Y0338780D01*
X0382631Y0338744D01*
X0382539Y0338712D01*
X0382446Y0338683D01*
X0382353Y0338659D01*
X0382258Y0338638D01*
X0382162Y0338621D01*
X0382066Y0338608D01*
X0381970Y0338599D01*
X0381873Y0338594D01*
X0381776Y0338593D01*
X0381679Y0338596D01*
X0381582Y0338603D01*
X0381486Y0338614D01*
X0381390Y0338629D01*
X0381295Y0338648D01*
X0381200Y0338670D01*
X0381107Y0338697D01*
X0381015Y0338727D01*
X0380924Y0338761D01*
X0380835Y0338799D01*
X0380747Y0338841D01*
X0380661Y0338886D01*
X0380577Y0338934D01*
X0380495Y0338986D01*
X0380416Y0339041D01*
X0380338Y0339100D01*
X0380263Y0339161D01*
X0380191Y0339226D01*
X0380121Y0339293D01*
X0380054Y0339364D01*
X0379991Y0339437D01*
X0379930Y0339512D01*
X0379872Y0339590D01*
X0379818Y0339671D01*
X0379767Y0339753D01*
X0379719Y0339838D01*
X0379675Y0339924D01*
X0379634Y0340012D01*
X0379598Y0340102D01*
X0379564Y0340193D01*
X0379535Y0340285D01*
X0379509Y0340379D01*
X0379488Y0340473D01*
X0379470Y0340569D01*
X0379456Y0340665D01*
X0379446Y0340761D01*
X0379440Y0340858D01*
X0379438Y0340955D01*
X0379438Y0060955D02*
X0379440Y0061052D01*
X0379446Y0061149D01*
X0379456Y0061245D01*
X0379470Y0061341D01*
X0379488Y0061437D01*
X0379509Y0061531D01*
X0379535Y0061625D01*
X0379564Y0061717D01*
X0379598Y0061808D01*
X0379634Y0061898D01*
X0379675Y0061986D01*
X0379719Y0062072D01*
X0379767Y0062157D01*
X0379818Y0062239D01*
X0379872Y0062320D01*
X0379930Y0062398D01*
X0379991Y0062473D01*
X0380054Y0062546D01*
X0380121Y0062617D01*
X0380191Y0062684D01*
X0380263Y0062749D01*
X0380338Y0062810D01*
X0380416Y0062869D01*
X0380495Y0062924D01*
X0380577Y0062976D01*
X0380661Y0063024D01*
X0380747Y0063069D01*
X0380835Y0063111D01*
X0380924Y0063149D01*
X0381015Y0063183D01*
X0381107Y0063213D01*
X0381200Y0063240D01*
X0381295Y0063262D01*
X0381390Y0063281D01*
X0381486Y0063296D01*
X0381582Y0063307D01*
X0381679Y0063314D01*
X0381776Y0063317D01*
X0381873Y0063316D01*
X0381970Y0063311D01*
X0382066Y0063302D01*
X0382162Y0063289D01*
X0382258Y0063272D01*
X0382353Y0063251D01*
X0382446Y0063227D01*
X0382539Y0063198D01*
X0382631Y0063166D01*
X0382721Y0063130D01*
X0382809Y0063091D01*
X0382896Y0063047D01*
X0382981Y0063001D01*
X0383064Y0062950D01*
X0383145Y0062897D01*
X0383223Y0062840D01*
X0383300Y0062780D01*
X0383373Y0062717D01*
X0383444Y0062651D01*
X0383512Y0062582D01*
X0383578Y0062510D01*
X0383640Y0062436D01*
X0383699Y0062359D01*
X0383755Y0062280D01*
X0383808Y0062198D01*
X0383858Y0062115D01*
X0383903Y0062029D01*
X0383946Y0061942D01*
X0383985Y0061853D01*
X0384020Y0061763D01*
X0384051Y0061671D01*
X0384078Y0061578D01*
X0384102Y0061484D01*
X0384122Y0061389D01*
X0384138Y0061293D01*
X0384150Y0061197D01*
X0384158Y0061100D01*
X0384162Y0061003D01*
X0384162Y0060907D01*
X0384158Y0060810D01*
X0384150Y0060713D01*
X0384138Y0060617D01*
X0384122Y0060521D01*
X0384102Y0060426D01*
X0384078Y0060332D01*
X0384051Y0060239D01*
X0384020Y0060147D01*
X0383985Y0060057D01*
X0383946Y0059968D01*
X0383903Y0059881D01*
X0383858Y0059795D01*
X0383808Y0059712D01*
X0383755Y0059630D01*
X0383699Y0059551D01*
X0383640Y0059474D01*
X0383578Y0059400D01*
X0383512Y0059328D01*
X0383444Y0059259D01*
X0383373Y0059193D01*
X0383300Y0059130D01*
X0383223Y0059070D01*
X0383145Y0059013D01*
X0383064Y0058960D01*
X0382981Y0058909D01*
X0382896Y0058863D01*
X0382809Y0058819D01*
X0382721Y0058780D01*
X0382631Y0058744D01*
X0382539Y0058712D01*
X0382446Y0058683D01*
X0382353Y0058659D01*
X0382258Y0058638D01*
X0382162Y0058621D01*
X0382066Y0058608D01*
X0381970Y0058599D01*
X0381873Y0058594D01*
X0381776Y0058593D01*
X0381679Y0058596D01*
X0381582Y0058603D01*
X0381486Y0058614D01*
X0381390Y0058629D01*
X0381295Y0058648D01*
X0381200Y0058670D01*
X0381107Y0058697D01*
X0381015Y0058727D01*
X0380924Y0058761D01*
X0380835Y0058799D01*
X0380747Y0058841D01*
X0380661Y0058886D01*
X0380577Y0058934D01*
X0380495Y0058986D01*
X0380416Y0059041D01*
X0380338Y0059100D01*
X0380263Y0059161D01*
X0380191Y0059226D01*
X0380121Y0059293D01*
X0380054Y0059364D01*
X0379991Y0059437D01*
X0379930Y0059512D01*
X0379872Y0059590D01*
X0379818Y0059671D01*
X0379767Y0059753D01*
X0379719Y0059838D01*
X0379675Y0059924D01*
X0379634Y0060012D01*
X0379598Y0060102D01*
X0379564Y0060193D01*
X0379535Y0060285D01*
X0379509Y0060379D01*
X0379488Y0060473D01*
X0379470Y0060569D01*
X0379456Y0060665D01*
X0379446Y0060761D01*
X0379440Y0060858D01*
X0379438Y0060955D01*
D11*
X0176500Y0171255D02*
X0172230Y0171255D01*
X0170055Y0171255D02*
X0165784Y0171255D01*
X0163609Y0171255D02*
X0163609Y0177661D01*
X0159339Y0177661D01*
X0157164Y0177661D02*
X0155028Y0177661D01*
X0156096Y0177661D02*
X0156096Y0171255D01*
X0157164Y0171255D02*
X0155028Y0171255D01*
X0152867Y0172323D02*
X0151799Y0171255D01*
X0149664Y0171255D01*
X0148596Y0172323D01*
X0148596Y0173390D01*
X0149664Y0174458D01*
X0151799Y0174458D01*
X0152867Y0175525D01*
X0152867Y0176593D01*
X0151799Y0177661D01*
X0149664Y0177661D01*
X0148596Y0176593D01*
X0146421Y0177661D02*
X0146421Y0171255D01*
X0146421Y0174458D02*
X0142151Y0174458D01*
X0139976Y0174458D02*
X0135705Y0174458D01*
X0135705Y0175525D02*
X0135705Y0171255D01*
X0135705Y0175525D02*
X0137840Y0177661D01*
X0139976Y0175525D01*
X0139976Y0171255D01*
X0142151Y0171255D02*
X0142151Y0177661D01*
X0161474Y0174458D02*
X0163609Y0174458D01*
X0165784Y0177661D02*
X0170055Y0177661D01*
X0170055Y0171255D01*
X0170055Y0174458D02*
X0167919Y0174458D01*
X0172230Y0176593D02*
X0172230Y0177661D01*
X0176500Y0177661D01*
X0172230Y0176593D02*
X0176500Y0172323D01*
X0176500Y0171255D01*
X0342854Y0312323D02*
X0343921Y0311255D01*
X0346056Y0311255D01*
X0347124Y0312323D01*
X0342854Y0316593D01*
X0342854Y0312323D01*
X0347124Y0312323D02*
X0347124Y0316593D01*
X0346056Y0317661D01*
X0343921Y0317661D01*
X0342854Y0316593D01*
X0344976Y0321755D02*
X0344976Y0326025D01*
X0342840Y0328161D01*
X0340705Y0326025D01*
X0340705Y0321755D01*
X0340705Y0324958D02*
X0344976Y0324958D01*
X0347151Y0324958D02*
X0351421Y0324958D01*
X0353596Y0323890D02*
X0354664Y0324958D01*
X0356799Y0324958D01*
X0357867Y0326025D01*
X0357867Y0327093D01*
X0356799Y0328161D01*
X0354664Y0328161D01*
X0353596Y0327093D01*
X0351421Y0328161D02*
X0351421Y0321755D01*
X0353596Y0322823D02*
X0354664Y0321755D01*
X0356799Y0321755D01*
X0357867Y0322823D01*
X0360028Y0321755D02*
X0362164Y0321755D01*
X0361096Y0321755D02*
X0361096Y0328161D01*
X0362164Y0328161D02*
X0360028Y0328161D01*
X0364339Y0328161D02*
X0368609Y0328161D01*
X0368609Y0321755D01*
X0370784Y0321755D02*
X0375055Y0321755D01*
X0375055Y0328161D01*
X0370784Y0328161D01*
X0372919Y0324958D02*
X0375055Y0324958D01*
X0377230Y0327093D02*
X0377230Y0328161D01*
X0381500Y0328161D01*
X0377230Y0327093D02*
X0381500Y0322823D01*
X0381500Y0321755D01*
X0377230Y0321755D01*
X0377230Y0317661D02*
X0377230Y0313390D01*
X0379365Y0311255D01*
X0381500Y0313390D01*
X0381500Y0317661D01*
X0375055Y0314458D02*
X0375055Y0312323D01*
X0373987Y0311255D01*
X0371852Y0311255D01*
X0370784Y0313390D02*
X0375055Y0313390D01*
X0375055Y0314458D02*
X0373987Y0315525D01*
X0371852Y0315525D01*
X0370784Y0314458D01*
X0370784Y0313390D01*
X0368609Y0313390D02*
X0366474Y0315525D01*
X0365406Y0315525D01*
X0368609Y0315525D02*
X0368609Y0311255D01*
X0356792Y0311255D02*
X0352522Y0311255D01*
X0354657Y0311255D02*
X0354657Y0317661D01*
X0356792Y0315525D01*
X0350347Y0312323D02*
X0349279Y0312323D01*
X0349279Y0311255D01*
X0350347Y0311255D01*
X0350347Y0312323D01*
X0347151Y0321755D02*
X0347151Y0328161D01*
X0353596Y0323890D02*
X0353596Y0322823D01*
X0366474Y0324958D02*
X0368609Y0324958D01*
D12*
X0136600Y0265759D02*
X0136600Y0261155D01*
X0133531Y0261155D01*
X0131996Y0261922D02*
X0131229Y0262690D01*
X0128927Y0262690D01*
X0128927Y0263457D02*
X0128927Y0261155D01*
X0131229Y0261155D01*
X0131996Y0261922D01*
X0131229Y0264224D02*
X0129694Y0264224D01*
X0128927Y0263457D01*
X0127392Y0264224D02*
X0127392Y0261922D01*
X0126625Y0261155D01*
X0124323Y0261155D01*
X0124323Y0260388D02*
X0125090Y0259620D01*
X0125858Y0259620D01*
X0124323Y0260388D02*
X0124323Y0264224D01*
X0122788Y0263457D02*
X0122788Y0261922D01*
X0122021Y0261155D01*
X0120486Y0261155D01*
X0119719Y0261922D01*
X0119719Y0263457D01*
X0120486Y0264224D01*
X0122021Y0264224D01*
X0122788Y0263457D01*
X0118184Y0264224D02*
X0118184Y0261922D01*
X0117417Y0261155D01*
X0115115Y0261155D01*
X0115115Y0264224D01*
X0113580Y0264224D02*
X0112046Y0264224D01*
X0112813Y0264992D02*
X0112813Y0261922D01*
X0112046Y0261155D01*
X0105907Y0261155D02*
X0103605Y0261155D01*
X0102838Y0261922D01*
X0102838Y0263457D01*
X0103605Y0264224D01*
X0105907Y0264224D01*
X0105907Y0265759D02*
X0105907Y0261155D01*
X0101303Y0261922D02*
X0101303Y0264224D01*
X0101303Y0261922D02*
X0100536Y0261155D01*
X0098234Y0261155D01*
X0098234Y0260388D02*
X0099001Y0259620D01*
X0099769Y0259620D01*
X0098234Y0260388D02*
X0098234Y0264224D01*
X0092095Y0264224D02*
X0092095Y0261155D01*
X0092095Y0263457D02*
X0089026Y0263457D01*
X0089026Y0264224D02*
X0089026Y0261155D01*
X0087491Y0261155D02*
X0085957Y0261155D01*
X0086724Y0261155D02*
X0086724Y0265759D01*
X0087491Y0265759D01*
X0089026Y0264224D02*
X0090561Y0265759D01*
X0092095Y0264224D01*
X0084422Y0263457D02*
X0083655Y0264224D01*
X0082120Y0264224D01*
X0081353Y0263457D01*
X0081353Y0262690D01*
X0084422Y0262690D01*
X0084422Y0263457D02*
X0084422Y0261922D01*
X0083655Y0261155D01*
X0082120Y0261155D01*
X0079818Y0261155D02*
X0076749Y0264224D01*
X0075214Y0263457D02*
X0074447Y0264224D01*
X0072912Y0264224D01*
X0072145Y0263457D01*
X0072145Y0262690D01*
X0075214Y0262690D01*
X0075214Y0263457D02*
X0075214Y0261922D01*
X0074447Y0261155D01*
X0072912Y0261155D01*
X0070610Y0261922D02*
X0069843Y0261155D01*
X0067541Y0261155D01*
X0067541Y0260388D02*
X0068308Y0259620D01*
X0069076Y0259620D01*
X0067541Y0260388D02*
X0067541Y0264224D01*
X0070610Y0264224D02*
X0070610Y0261922D01*
X0076749Y0261155D02*
X0079818Y0264224D01*
X0079298Y0255759D02*
X0080833Y0255759D01*
X0081600Y0254992D01*
X0079298Y0255759D02*
X0078531Y0254992D01*
X0078531Y0254224D01*
X0081600Y0251155D01*
X0078531Y0251155D01*
X0076996Y0251922D02*
X0073927Y0254992D01*
X0073927Y0251922D01*
X0074694Y0251155D01*
X0076229Y0251155D01*
X0076996Y0251922D01*
X0076996Y0254992D01*
X0076229Y0255759D01*
X0074694Y0255759D01*
X0073927Y0254992D01*
X0072392Y0254224D02*
X0070858Y0255759D01*
X0070858Y0251155D01*
X0072392Y0251155D02*
X0069323Y0251155D01*
X0067788Y0251922D02*
X0067021Y0251155D01*
X0065486Y0251155D01*
X0064719Y0251922D01*
X0064719Y0253457D01*
X0065486Y0254224D01*
X0066254Y0254224D01*
X0067788Y0253457D01*
X0067788Y0255759D01*
X0064719Y0255759D01*
X0061403Y0261155D02*
X0061403Y0265759D01*
X0059101Y0265759D01*
X0058333Y0264992D01*
X0058333Y0263457D01*
X0059101Y0262690D01*
X0061403Y0262690D01*
X0056799Y0263457D02*
X0056799Y0261922D01*
X0056031Y0261155D01*
X0054497Y0261155D01*
X0053729Y0261922D01*
X0053729Y0263457D01*
X0054497Y0264224D01*
X0056031Y0264224D01*
X0056799Y0263457D01*
X0052195Y0263457D02*
X0051427Y0264224D01*
X0049125Y0264224D01*
X0047591Y0264224D02*
X0047591Y0261155D01*
X0049125Y0261155D02*
X0049125Y0265759D01*
X0047591Y0262690D02*
X0046056Y0264224D01*
X0045289Y0264224D01*
X0043754Y0263457D02*
X0042987Y0264224D01*
X0041452Y0264224D01*
X0040685Y0263457D01*
X0040685Y0262690D01*
X0043754Y0262690D01*
X0043754Y0263457D02*
X0043754Y0261922D01*
X0042987Y0261155D01*
X0041452Y0261155D01*
X0039150Y0261155D02*
X0036081Y0261155D01*
X0034546Y0261922D02*
X0033779Y0261155D01*
X0032244Y0261155D01*
X0031477Y0261922D01*
X0031477Y0263457D01*
X0032244Y0264224D01*
X0033779Y0264224D01*
X0034546Y0263457D01*
X0034546Y0261922D01*
X0036081Y0264224D02*
X0039150Y0261155D01*
X0039150Y0264224D02*
X0036081Y0264224D01*
X0029942Y0264224D02*
X0028408Y0261155D01*
X0026873Y0264224D01*
X0049125Y0261155D02*
X0051427Y0261155D01*
X0052195Y0261922D01*
X0052195Y0263457D01*
D13*
X0279241Y0309262D02*
X0279241Y0341939D01*
X0280422Y0341939D01*
X0280422Y0334065D01*
X0279438Y0334065D01*
X0279241Y0341939D02*
X0279241Y0359656D01*
X0334359Y0359656D02*
X0334359Y0341939D01*
X0333178Y0341939D01*
X0333178Y0334065D01*
X0334359Y0334065D01*
X0334359Y0341939D01*
X0334359Y0334065D02*
X0334359Y0309459D01*
M02*
