%
M48
M72
T01C0.02400
T02C0.03200
T03C0.03543
T04C0.03600
T05C0.03937
T06C0.04000
T07C0.04400
T08C0.04724
T09C0.07087
T10C0.09055
T11C0.13000
%
T01
X139300Y100955
X164300Y104705
X201800Y115955
X211800Y125955
X221800Y115955
X251800Y115955
X261800Y125955
X271800Y115955
X294300Y94705
X301800Y115955
X311800Y125955
X321800Y115955
X315550Y104705
X351800Y115955
X361800Y125955
X371800Y115955
X255550Y177205
X249300Y179705
X211800Y265955
X201800Y275955
X191800Y265955
X166800Y265955
X156800Y275955
X146800Y265955
T02
X108800Y240955
X94800Y240955
X116800Y205955
X141800Y190955
X116800Y175955
X116800Y140955
X116800Y110955
X56800Y110955
X31800Y115955
X31800Y135955
X56800Y140955
X56800Y175955
X31800Y180955
X31800Y200955
X56800Y205955
X48800Y240955
X34800Y240955
X34800Y285955
X48800Y285955
X61800Y340955
X71800Y340955
X149800Y320955
X163800Y320955
X244800Y265955
X258800Y265955
X291800Y295955
X321800Y295955
X346800Y295955
X376800Y295955
X368800Y265955
X354800Y265955
X326800Y230955
X326800Y220955
X306800Y220955
X306800Y190955
X326800Y190955
X326800Y180955
X346800Y180955
X351800Y155955
X371800Y155955
X376800Y180955
X321800Y155955
X301800Y155955
X271800Y155955
X251800Y155955
X221800Y155955
X201800Y155955
X196800Y190955
X206800Y190955
X216800Y190955
X226800Y190955
X226800Y220955
X216800Y220955
X206800Y220955
X196800Y220955
X166800Y220955
X146800Y220955
X171800Y190955
X299800Y265955
X313800Y265955
T03
X320186Y316349
X320186Y326191
X293414Y326191
X293414Y316546
X361800Y340955
X351957Y215955
X371643Y215955
X381800Y85955
X26800Y85955
X26800Y325955
T04
X41800Y325955
X41800Y315955
X146800Y155955
X156800Y155955
X166800Y155955
X166800Y115955
X156800Y115955
X146800Y115955
X196800Y80955
X206800Y80955
X206800Y60955
X196800Y60955
T05
X200146Y305955
X221800Y341388
X243454Y305955
T06
X287745Y80955
X296761Y80955
X305776Y80955
X314792Y80955
X323808Y80955
X328296Y70955
X319280Y70955
X314792Y60955
X323808Y60955
X310265Y70955
X301249Y70955
X292233Y70955
X287745Y60955
X296761Y60955
X305776Y60955
X123296Y70955
X118808Y60955
X114280Y70955
X105265Y70955
X96249Y70955
X87233Y70955
X82745Y60955
X91761Y60955
X100776Y60955
X109792Y60955
X109792Y80955
X100776Y80955
X91761Y80955
X82745Y80955
X118808Y80955
T07
X111800Y275955
X101800Y275955
X91800Y275955
T08
X26800Y60955
X26800Y340955
X381800Y340955
X381800Y60955
T09
X221800Y311861
T10
X280225Y338002
X306800Y341152
X333572Y338002
T11
X101800Y334955
X52587Y70955
X151013Y70955
X257587Y70955
X356013Y70955
M30
