G75*
%MOIN*%
%OFA0B0*%
%FSLAX25Y25*%
%IPPOS*%
%LPD*%
%AMOC8*
5,1,8,0,0,1.08239X$1,22.5*
%
%ADD10C,0.05524*%
%ADD11OC8,0.06000*%
%ADD12OC8,0.07100*%
%ADD13C,0.07100*%
%ADD14C,0.06000*%
%ADD15C,0.06000*%
%ADD16C,0.05200*%
%ADD17C,0.09461*%
%ADD18C,0.12611*%
%ADD19C,0.14580*%
%ADD20OC8,0.06400*%
%ADD21C,0.08200*%
%ADD22C,0.20800*%
%ADD23C,0.07400*%
%ADD24C,0.13800*%
%ADD25C,0.06400*%
%ADD26C,0.06400*%
%ADD27C,0.06115*%
%ADD28C,0.04800*%
D10*
X0026800Y0060955D03*
X0026800Y0340955D03*
X0381800Y0340955D03*
X0381800Y0060955D03*
D11*
X0371800Y0155955D03*
X0351800Y0155955D03*
X0346800Y0180955D03*
X0326800Y0180955D03*
X0326800Y0190955D03*
X0326800Y0220955D03*
X0326800Y0230955D03*
X0376800Y0180955D03*
X0321800Y0155955D03*
X0301800Y0155955D03*
X0271800Y0155955D03*
X0251800Y0155955D03*
X0221800Y0155955D03*
X0201800Y0155955D03*
X0171800Y0190955D03*
X0141800Y0190955D03*
X0146800Y0220955D03*
X0166800Y0220955D03*
X0291800Y0295955D03*
X0321800Y0295955D03*
X0346800Y0295955D03*
X0376800Y0295955D03*
X0071800Y0340955D03*
X0061800Y0340955D03*
X0031800Y0200955D03*
X0031800Y0180955D03*
X0031800Y0135955D03*
X0031800Y0115955D03*
D12*
X0034800Y0240955D03*
X0034800Y0285955D03*
X0094800Y0240955D03*
X0163800Y0320955D03*
X0258800Y0265955D03*
X0313800Y0265955D03*
X0368800Y0265955D03*
D13*
X0354800Y0265955D03*
X0299800Y0265955D03*
X0244800Y0265955D03*
X0149800Y0320955D03*
X0108800Y0240955D03*
X0048800Y0240955D03*
X0048800Y0285955D03*
D14*
X0196800Y0223555D02*
X0196800Y0218355D01*
X0206800Y0218355D02*
X0206800Y0223555D01*
X0216800Y0223555D02*
X0216800Y0218355D01*
X0226800Y0218355D02*
X0226800Y0223555D01*
X0226800Y0193555D02*
X0226800Y0188355D01*
X0216800Y0188355D02*
X0216800Y0193555D01*
X0206800Y0193555D02*
X0206800Y0188355D01*
X0196800Y0188355D02*
X0196800Y0193555D01*
X0306800Y0193555D02*
X0306800Y0188355D01*
X0306800Y0218355D02*
X0306800Y0223555D01*
D15*
X0116800Y0205955D03*
X0116800Y0175955D03*
X0116800Y0140955D03*
X0116800Y0110955D03*
X0056800Y0110955D03*
X0056800Y0140955D03*
X0056800Y0175955D03*
X0056800Y0205955D03*
D16*
X0146800Y0265955D03*
X0156800Y0275955D03*
X0166800Y0265955D03*
X0191800Y0265955D03*
X0201800Y0275955D03*
X0211800Y0265955D03*
X0211800Y0125955D03*
X0201800Y0115955D03*
X0221800Y0115955D03*
X0251800Y0115955D03*
X0261800Y0125955D03*
X0271800Y0115955D03*
X0301800Y0115955D03*
X0311800Y0125955D03*
X0321800Y0115955D03*
X0351800Y0115955D03*
X0361800Y0125955D03*
X0371800Y0115955D03*
D17*
X0243454Y0301624D02*
X0243454Y0310286D01*
X0221800Y0337057D02*
X0221800Y0345719D01*
X0200146Y0310286D02*
X0200146Y0301624D01*
D18*
X0221800Y0311861D03*
D19*
X0280225Y0338002D03*
X0306800Y0341152D03*
X0333572Y0338002D03*
D20*
X0320186Y0326191D03*
X0320186Y0316349D03*
X0293414Y0316546D03*
X0293414Y0326191D03*
D21*
X0296761Y0080955D03*
X0305776Y0080955D03*
X0314792Y0080955D03*
X0323808Y0080955D03*
X0328296Y0070955D03*
X0319280Y0070955D03*
X0314792Y0060955D03*
X0323808Y0060955D03*
X0310265Y0070955D03*
X0301249Y0070955D03*
X0292233Y0070955D03*
X0287745Y0060955D03*
X0296761Y0060955D03*
X0305776Y0060955D03*
X0287745Y0080955D03*
X0123296Y0070955D03*
X0118808Y0060955D03*
X0114280Y0070955D03*
X0105265Y0070955D03*
X0096249Y0070955D03*
X0087233Y0070955D03*
X0082745Y0060955D03*
X0091761Y0060955D03*
X0100776Y0060955D03*
X0109792Y0060955D03*
X0109792Y0080955D03*
X0100776Y0080955D03*
X0091761Y0080955D03*
X0082745Y0080955D03*
X0118808Y0080955D03*
D22*
X0151013Y0070955D03*
X0052587Y0070955D03*
X0257587Y0070955D03*
X0356013Y0070955D03*
D23*
X0111800Y0272655D02*
X0111800Y0279255D01*
X0101800Y0279255D02*
X0101800Y0272655D01*
X0091800Y0272655D02*
X0091800Y0279255D01*
D24*
X0101800Y0334955D03*
D25*
X0351957Y0215955D03*
X0371643Y0215955D03*
D26*
X0206800Y0083755D02*
X0206800Y0078155D01*
X0196800Y0078155D02*
X0196800Y0083755D01*
X0196800Y0063755D02*
X0196800Y0058155D01*
X0206800Y0058155D02*
X0206800Y0063755D01*
X0166800Y0113155D02*
X0166800Y0118755D01*
X0156800Y0118755D02*
X0156800Y0113155D01*
X0146800Y0113155D02*
X0146800Y0118755D01*
X0146800Y0153155D02*
X0146800Y0158755D01*
X0156800Y0158755D02*
X0156800Y0153155D01*
X0166800Y0153155D02*
X0166800Y0158755D01*
X0044600Y0315955D02*
X0039000Y0315955D01*
X0039000Y0325955D02*
X0044600Y0325955D01*
D27*
X0026800Y0325955D03*
X0026800Y0085955D03*
X0361800Y0340955D03*
X0381800Y0085955D03*
D28*
X0315550Y0104705D03*
X0294300Y0094705D03*
X0255550Y0177205D03*
X0249300Y0179705D03*
X0164300Y0104705D03*
X0139300Y0100955D03*
M02*
